<?xml version="1.0" encoding="UTF-8"?>
<svg fill="#FF5C00" width="64" height="64" version="1.1" viewBox="0 0 64 64" xmlns="http://www.w3.org/2000/svg" xmlns:xlink="http://www.w3.org/1999/xlink">
 <path d="m11.971 48.832c-1.8637-0.63514-3.3201-2.1721-3.7621-3.9701-0.080019-0.32552-0.080944-0.32574-1.6943-0.39117-1.37-0.055566-1.7155-0.11243-2.2834-0.3759-0.803-0.37251-1.5005-1.0502-1.8859-1.8322l-0.28332-0.57498-0.033769-11.678c-0.029294-10.131-0.0086776-11.764 0.1556-12.33 0.24466-0.84162 1.1495-1.8639 2.0006-2.2602l0.62753-0.29222 24.625-5.24e-4c16.582-3.53e-4 24.777 0.04171 25.091 0.12878 0.59958 0.16652 1.4331 0.80464 1.8781 1.4378 0.3412 0.48547 5.0492 13.776 5.4223 15.307 0.12311 0.50515 0.16807 1.817 0.16951 4.9461 0.0023 4.9805-0.02549 5.1535-0.99828 6.2179-0.97098 1.0624-1.5052 1.2392-3.9576 1.3098l-2.0203 0.05814-0.07456 0.39032c-0.22981 1.203-1.4116 2.753-2.6311 3.4507-3.0564 1.7487-7.0924 0.24175-8.1905-3.0583l-0.27108-0.8146h-24.577l-0.07948 0.42368c-0.22712 1.2106-1.3992 2.724-2.6983 3.4842-1.2785 0.74805-3.0822 0.91695-4.5285 0.42404zm3.3556-2.0552c0.82511-0.42451 1.2574-0.85969 1.6657-1.6767 1.2916-2.5848-0.68384-5.5495-3.5448-5.3199-1.335 0.10716-2.443 0.86325-3.0367 2.0721-0.46283 0.94249-0.48048 2.1431-0.04586 3.1201 0.34741 0.78101 1.2795 1.6718 2.0439 1.9533 0.74707 0.2751 2.2418 0.19876 2.9177-0.14903zm35.937-0.11113c1.7394-0.97599 2.3753-3.065 1.4841-4.8753-1.3454-2.7329-5.2326-2.6963-6.5871 0.06203-0.72155 1.4693-0.34364 3.2758 0.91754 4.3859 0.78028 0.68683 1.3984 0.89047 2.5605 0.84353 0.78381-0.03166 1.0706-0.10512 1.625-0.4162zm-42.96-4.8843c0.30798-0.98325 0.69723-1.6141 1.4742-2.389 1.002-0.99939 2.4962-1.632 3.8714-1.6392 2.478-0.01289 4.7536 1.6361 5.4748 3.9672l0.22192 0.71726 24.488 0.06372 0.15703-0.53186c0.28868-0.97775 0.90874-1.9649 1.6981-2.7032 2.9897-2.7968 7.9694-1.4663 9.1853 2.4541l0.22245 0.71726h1.8573c1.76 0 1.8793-0.0157 2.2777-0.29983 0.72782-0.5191 0.76711-0.7532 0.76711-4.5712v-3.4415h-9.1362l-1.5882-1.4836c-0.87349-0.81597-1.6953-1.6035-1.8263-1.75l-0.23812-0.26642h-18.901-18.901l-0.33185-0.26104c-0.69418-0.54605-0.70186-0.6047-0.70186-5.364 0-4.846 0.00867-4.9053 0.78732-5.3801 0.39306-0.23966 0.80832-0.24401 23.32-0.24447 19.562-3.99e-4 22.91-0.02603 22.853-0.17496-0.03683-0.09597-0.1377-0.41062-0.22417-0.69922-0.20739-0.69221-0.69745-1.1977-1.3249-1.3667-0.36327-0.09782-7.3859-0.12782-24.491-0.10463-23.859 0.032347-23.984 0.033813-24.419 0.28676-0.92677 0.53859-0.87459-0.20139-0.87481 12.406-2.114e-4 12.287-0.024998 11.851 0.70441 12.369 0.48459 0.3439 0.66209 0.37692 2.1163 0.39368l1.2584 0.0145zm51.446-9.7651c0-0.05986-0.7093-2.1552-1.5762-4.6562s-1.6877-4.8708-1.824-5.2662l-0.24776-0.71875h-7.477v7.8087l2.9336 2.9413h4.0957c2.2526 0 4.0957-0.04898 4.0957-0.10884zm-41.779-6.9849 0.033138-3.6562h-7.6288v7.3787l7.5625-0.06616zm9.5294 0.03125v-3.6875h-7.625v3.6042c0 1.9823 0.0375 3.6417 0.08333 3.6875 0.04583 0.04583 1.7615 0.08333 3.8125 0.08333h3.7292zm9.5956-0.03125 0.03314-3.6562h-7.6288v7.3787l7.5625-0.06616zm9.5294 0.03125v-3.6875h-7.5v7.375h7.5z"/>
</svg>
