<?xml version="1.0" encoding="UTF-8"?>
<svg width="512" height="512" version="1.1" viewBox="0 0 512 512" xmlns="http://www.w3.org/2000/svg" xmlns:xlink="http://www.w3.org/1999/xlink">
 <path fill="#FF5C00" d="m154.35 446.12c-3.8026-2.3753-5.724-7.3755-4.4696-11.632 0.48449-1.6439 10.159-27.698 21.499-57.899s20.618-55.267 20.618-55.703-29.362-0.95193-65.25-1.1466c-58.82-0.31899-65.841-0.52813-71.25-2.1222-21.199-6.2477-38.892-21.026-47.993-40.089-7.1439-14.962-6.8729-11.743-7.2453-86.029l-0.33592-67 2.7873-5.4938c3.9969-7.8777 9.2973-11.328 18.172-11.83 8.9305-0.50462 16.525 1.1624 25.304 5.5541 8.7873 4.3961 18.075 13.403 22.448 21.77 1.7249 3.2999 7.2871 19.275 12.36 35.5 11.282 36.082 12.574 39.586 15.294 41.491 1.8457 1.2928 8.8634 1.5086 49.048 1.5086 44.182 0 46.866-0.10123 46.403-1.75-0.27014-0.9625-9.9897-27.046-21.599-57.964-16.667-44.388-20.981-56.849-20.503-59.236 0.8006-4.003 4.7861-7.8524 8.9361-8.6309 1.8435-0.34584 14.056-0.42323 27.138-0.17196 25.957 0.49853 29.408 1.0954 40.605 7.0236 11.116 5.885 13.935 9.6858 49.681 66.989l33.5 53.702 46 0.0274c46.761 0.0278 63.16 0.80057 74.933 3.531 14.872 3.449 30.695 10.543 43.567 19.533 15.695 10.962 33.158 31.801 36.616 43.695 4.2237 14.529-3.2951 30.456-17.529 37.131l-5.5865 2.6198-177.91 1-33.138 52.967c-18.226 29.132-34.742 54.811-36.704 57.066-4.8684 5.5965-13.122 11.1-21.367 14.248-6.708 2.5608-7.5513 2.6346-33.879 2.9659-25.437 0.32008-27.182 0.22596-30.147-1.626zm59.893-22.92c4.2878-2.1112 7.927-4.8126 10.104-7.5 1.8711-2.3101 24.444-37.95 50.162-79.2 25.718-41.25 47.755-76.046 48.972-77.325 1.3248-1.3924 3.8661-2.5466 6.3366-2.8779 3.7288-0.50015 4.4632-0.21467 7.6526 2.9747 5.6312 5.6312 5.0959 8.493-4.4236 23.651-4.3734 6.9636-8.2465 13.43-8.607 14.369-0.61468 1.6018 4.2394 1.7081 78.05 1.7081 87.509 0 83.72 0.28851 87-6.6242 2.3423-4.9361 1.2764-8.2331-5.6206-17.386-13.772-18.277-32.192-30.61-55.696-37.292l-7.6754-2.1818-325-1.0163-5.5-2.5902c-7.0763-3.3325-11.402-7.0337-14.601-12.493-1.4092-2.4047-7.2132-19.198-12.898-37.319-5.6845-18.121-11.151-34.668-12.147-36.772-3.9353-8.3085-14.114-15.646-23.488-16.93l-4.5386-0.62208-0.67102 59.864c-0.39299 35.06-0.29167 62.142 0.24455 65.364 1.9404 11.656 7.0497 21.664 15.243 29.857 6.1169 6.1169 11.325 9.3978 20.738 13.064l6.6196 2.5785 67.69 0.2955c65.777 0.28714 67.719 0.24146 68.713-1.6155 0.56251-1.0511 3.7558-9.232 7.0962-18.18 7.3161-19.597 7.3145-19.594 10.98-21.49 3.906-2.0199 6.8726-1.8976 10.709 0.44137 3.6608 2.2321 5.6168 7.5379 4.3566 11.817-0.44227 1.502-13.683 37.046-29.425 78.986-15.741 41.94-28.621 76.75-28.621 77.355 0 0.76834 4.7542 0.99294 15.772 0.7451 15.498-0.34861 15.889-0.41212 22.474-3.6546zm69.754-210.7c0-0.27749-13.059-21.394-29.021-46.926-31.086-49.726-34.163-53.74-43.663-56.978-3.4733-1.1835-8.6044-1.592-19.994-1.592-8.427 0-15.322 0.30294-15.322 0.67321 0 0.37026 8.832 24.22 19.627 53l19.627 52.327h34.373c18.905 0 34.373-0.22704 34.373-0.50454z"/>
</svg>
