<?xml version="1.0" encoding="UTF-8"?>
<svg width="512" height="512" version="1.1" viewBox="0 0 512 512" xmlns="http://www.w3.org/2000/svg" xmlns:xlink="http://www.w3.org/1999/xlink">
 <path fill="#FF5C00" d="m17.5 433.77c-5.8227-2.0755-11.049-6.5288-13.995-11.925-2.4789-4.5403-2.9814-6.7293-3.327-14.494-0.66519-14.944 3.8536-24.131 14.252-28.973l5.0709-2.3612 110.25-0.01c67.595-6e-3 110.25-0.37096 110.25-0.94332 0-0.51346-1.3535-3.1109-3.0078-5.7721-1.6543-2.6612-3.7918-8.088-4.75-12.059l-1.7422-7.2206-224.65-0.01411-5.8768-5.8768 0.53063-248.62 2.9113-5.2543c1.6012-2.8899 4.4065-6.3948 6.2341-7.7887 7.5789-5.7807-3.1621-5.4569 181.03-5.4569 188.97 0 176.21-0.46636 191.82 7.0151 8.4036 4.028 16.226 10.092 22.224 17.227 4.7594 5.6622 96.517 143.33 99.642 149.49 5.025 9.9163 7.0842 18.914 7.0413 30.765-0.0713 19.703-6.0656 34.197-19.886 48.084-12.812 12.873-26.662 18.893-46.219 20.088l-10.199 0.62342-1.0747 5.0112c-1.2453 5.8069-4.0789 12.552-6.9908 16.642-1.1202 1.5732-2.0368 3.1284-2.0368 3.456s15.188 0.60003 33.75 0.6054c33.363 0.01 33.808 0.0369 38.821 2.371 10.398 4.8418 14.917 14.028 14.252 28.973-0.34376 7.7231-0.85359 9.9642-3.276 14.401-1.5779 2.8899-4.3642 6.3948-6.1917 7.7887-7.6442 5.8305 9.1738 5.4639-246.73 5.378-164.19-0.05513-236.03-0.40156-238.12-1.1483zm473.59-17.055c2.8342-2.176 3.9133-5.4659 3.9133-11.93 0-7.5865-1.5637-10.295-6.7795-11.744-5.1828-1.4394-459.26-1.4394-464.44 0-5.2158 1.4486-6.7795 4.1573-6.7795 11.744 0 6.464 1.0792 9.7539 3.9133 11.93 2.317 1.7789 467.86 1.7789 470.17 0zm-200.39-44.839c8.0926-3.8537 12.683-9.5728 15.754-19.63l0.68718-2.25h-29.567c-16.262 0-29.567 0.36984-29.567 0.82186s0.7088 2.9021 1.5751 5.4445c3.1171 9.1481 12.181 16.638 22.557 18.64 6.238 1.2038 11.468 0.35081 18.562-3.0273zm60.306 3.099c0-0.56179-1.1107-2.6999-2.4683-4.7513-2.8261-4.2705-6.5317-14.417-6.5317-17.884 0-2.28-0.23782-2.3434-8.7785-2.3434h-8.7785l-1.7783 6.9032c-0.97807 3.7968-3.3277 9.4763-5.2215 12.621s-3.4432 5.8885-3.4432 6.0968c0 0.20837 8.325 0.37885 18.5 0.37885 11.926 0 18.5-0.363 18.5-1.0214zm50.637-2.8777c7.2735-3.8698 12.708-10.273 14.9-17.556l1.3679-4.5451h-29.452c-16.199 0-29.452 0.36984-29.452 0.82186 0 3.0314 3.7756 10.778 7.0864 14.539 8.6598 9.838 24.192 12.783 35.55 6.7401zm52.485-40.539c23.212-4.9201 40.795-26.534 40.863-50.23 0.02622-9.1687 5.367-8.3318-53.169-8.3318h-51.97l-2.9231-2.9231c-3.793-3.793-3.793-7.3608 0-11.154l2.9231-2.9231h98.162l-17.32-26-135.19-0.02-5-2.3638c-6.0094-2.841-9.6836-6.5736-12.419-12.617-1.9257-4.2542-2.0376-6.439-2.0492-40-0.012-35.098 0.0142-35.557 2.3196-40.507 2.5402-5.4548 8.1117-10.953 13.294-13.118 2.5481-1.0642 10.18-1.3744 33.823-1.3744 26.301 0 30.532-0.20526 30.532-1.4813 0-2.6873-12.729-15.095-18.811-18.337-12.337-6.5753-0.51499-6.1848-186.15-6.1498-130.91 0.0247-168.89 0.30379-170.13 1.25-3.8976 2.9924-3.9133 3.3279-3.9133 83.152v77.566h26v-57.634c0-41.282 0.33367-58.748 1.176-61.559 1.5438-5.1527 7.7622-12.114 13.151-14.723 4.1235-1.9962 5.8361-2.0828 40.739-2.0618 33.123 0.02 36.8 0.18804 40.456 1.8491 5.2661 2.3922 10.293 7.5082 12.89 13.118 2.0304 4.3864 2.0963 6.123 2.3832 62.747l0.29505 58.236 200.09 0.52839 1.9115 2.3608c2.7259 3.3666 2.4798 8.6618-0.54306 11.685l-2.4545 2.4546h-198.8l-0.63415 7.502c-0.34878 4.1261-1.2585 8.9963-2.0216 10.823-2.177 5.2104-7.6643 10.779-13.13 13.324-4.9396 2.3002-5.4736 2.3318-39.507 2.336-20.713 3e-3 -35.989-0.40921-38.225-1.0303-5.7-1.583-11.861-6.8618-14.983-12.837-2.3224-4.4455-2.7927-6.5899-2.7927-12.732v-7.3858h-26v60l215.25-0.0174c180.9-0.0146 216.31-0.24133 221.87-1.421zm-258.88-103.06c-5.5844-2.427-9.8078-6.2951-12.831-11.752l-2.9113-5.2543v-73l2.9744-5.3702c3.1864-5.753 6.9325-9.1483 12.797-11.599 5.3737-2.2453 73.706-2.2739 79.069-0.0331 4.955 2.0703 10.36 7.0333 12.968 11.907 2.1175 3.9571 2.2011 5.278 2.4886 39.311 0.19353 22.907-0.0781 36.612-0.77722 39.208-1.644 6.1055-6.7985 12.202-12.956 15.325l-5.4224 2.75-36.071-0.0391c-28.842-0.0313-36.724-0.32286-39.328-1.4549zm75.303-17.96 2.4546-2.4545v-32.611c0-21.448-0.36986-33.302-1.0805-34.63-2.3318-4.3571-6.0594-4.85-36.637-4.844-16.858 3e-3 -30.335 0.43685-32.531 1.0466-6.5888 1.8298-6.7516 2.7454-6.7516 37.964 0 31.69 0.23318 33.877 3.9133 36.702 1.1721 0.89989 10.286 1.2265 34.882 1.25l33.295 0.0318zm-136.85 77.041 2.8058-2.4133v-143.13l-5.5454-5.5457h-65.793l-5.1611 4.8486v71.871 71.871l4.9091 4.9091h65.979zm-53.771-85.51c-3.7296-3.7296-3.9091-8.1818-0.46853-11.622 2.4004-2.4004 2.8057-2.4546 18.365-2.4546 14.582 0 16.131 0.17305 18.545 2.0726 1.9084 1.5012 2.6349 2.9949 2.6349 5.4182 0 8.3626-2.5958 9.5092-21.527 9.5092h-14.627zm2.4339-32.032c-5.4554-2.2938-6.9941-9.4985-2.9025-13.59 2.4062-2.4062 2.7773-2.4546 18.826-2.4546 15.82 0 16.444 0.078 18.545 2.3144 3.0974 3.297 2.9142 8.641-0.40324 11.761-2.4597 2.3135-3.2481 2.4345-17.25 2.6472-8.0698 0.12258-15.637-0.18261-16.815-0.6782zm376.01 41.705c-0.41055-0.6875-11.93-18.034-25.598-38.548l-24.851-37.298-70.098 0.59614-4.8246 5.6115v65.979l2.4546 2.4545 2.4545 2.4546h60.604c48.215 0 60.452-0.25554 59.858-1.25z"/>
</svg>
